<svg width="64" height="64" viewBox="0 0 64 64" fill="none" xmlns="http://www.w3.org/2000/svg">
<path fill-rule="evenodd" clip-rule="evenodd" d="M31.9999 63.4787C31.9999 63.4787 10.7508 63.4787 3.20707 63.4787C2.51255 63.4787 1.84685 63.199 1.3565 62.7094C0.865276 62.2197 0.589539 61.555 0.589539 60.8555C0.589539 50.6162 0.589539 13.3838 0.589539 3.14447C0.589539 2.44494 0.865276 1.78029 1.3565 1.29062C1.84685 0.800949 2.51255 0.52124 3.20707 0.52124C9.83552 0.52124 27.1016 0.52124 31.9999 0.52124C49.3357 0.52124 63.4102 14.6255 63.4102 32C63.4102 49.3745 49.3357 63.4787 31.9999 63.4787ZM31.9999 8.39093C45.002 8.39093 55.5576 18.9713 55.5576 32C55.5576 45.0287 45.002 55.6091 31.9999 55.6091H11.0596C9.6139 55.6091 8.44212 54.4373 8.44212 52.9858C8.44212 47.582 8.44212 35.4189 8.44212 32C8.44212 18.9713 18.9977 8.39093 31.9999 8.39093ZM31.9999 47.7394C40.6682 47.7394 47.705 40.6829 47.705 32C47.705 23.3171 40.6674 16.2606 31.9999 16.2606C23.3315 16.2606 16.2947 23.3171 16.2947 32C16.2947 33.9324 16.2947 41.1638 16.2947 45.1161C16.2947 46.5677 17.4665 47.7394 18.9122 47.7394C23.3795 47.7394 31.9999 47.7394 31.9999 47.7394ZM31.9999 24.1303C36.3336 24.1303 39.8524 27.6542 39.8524 32C39.8524 36.3458 36.3336 39.8697 31.9999 39.8697C31.3586 39.8697 28.0125 39.8697 25.9001 39.8697C24.9316 39.8697 24.1473 39.0829 24.1473 38.1123C24.1473 36.0924 24.1473 32.9269 24.1473 32C24.1473 27.6542 27.6661 24.1303 31.9999 24.1303Z" fill="url(#paint0_linear)"/>
<defs>
<linearGradient id="paint0_linear" x1="0.589539" y1="0.52124" x2="49.1687" y2="66.9653" gradientUnits="userSpaceOnUse">
<stop stop-color="#0061FE"/>
<stop offset="1" stop-color="#B606FF"/>
</linearGradient>
</defs>
</svg>
