<svg width="325" height="440" viewBox="0 0 325 440" fill="none" xmlns="http://www.w3.org/2000/svg">
<rect x="83" y="280" width="160" height="160" rx="34" fill="#CCDFFF" fill-opacity="0.31"/>
<path fill-rule="evenodd" clip-rule="evenodd" d="M118.495 402.067H156.942C180.09 402.067 198.884 383.233 198.884 360.033C198.884 336.833 180.09 318 156.942 318H118.495C117.568 318 116.679 318.373 116.024 319.027C115.368 319.681 115 320.569 115 321.503V398.564C115 399.498 115.368 400.385 116.024 401.039C116.679 401.693 117.568 402.067 118.495 402.067ZM188.398 360.033C188.398 342.636 174.304 328.508 156.942 328.508C139.58 328.508 125.485 342.636 125.485 360.033V388.056C125.485 389.994 127.05 391.558 128.981 391.558H156.942C174.304 391.558 188.398 377.43 188.398 360.033ZM177.913 360.033C177.913 371.627 168.517 381.05 156.942 381.05H139.466C137.536 381.05 135.971 379.485 135.971 377.547V360.033C135.971 348.439 145.367 339.017 156.942 339.017C168.516 339.017 177.913 348.439 177.913 360.033ZM167.427 360.033C167.427 354.23 162.729 349.525 156.942 349.525C151.155 349.525 146.456 354.23 146.456 360.033V368.195C146.456 369.491 147.504 370.542 148.797 370.542H156.942C162.729 370.542 167.427 365.836 167.427 360.033ZM218.64 347.862C218.64 344.952 216.281 342.593 213.37 342.593C210.46 342.593 208.1 344.952 208.1 347.862V360.159V372.455C208.1 375.366 210.46 377.725 213.37 377.725C216.281 377.725 218.64 375.366 218.64 372.455V365.429H225.667C228.577 365.429 230.936 363.069 230.936 360.159C230.936 357.248 228.577 354.889 225.667 354.889H218.64V347.862Z" fill="#0061FE"/>
<path d="M160.879 262.121C162.05 263.293 163.95 263.293 165.121 262.121L184.213 243.029C185.385 241.858 185.385 239.958 184.213 238.787C183.042 237.615 181.142 237.615 179.971 238.787L163 255.757L146.029 238.787C144.858 237.615 142.958 237.615 141.787 238.787C140.615 239.958 140.615 241.858 141.787 243.029L160.879 262.121ZM166 223C166 221.343 164.657 220 163 220C161.343 220 160 221.343 160 223L166 223ZM166 260L166 223L160 223L160 260L166 260Z" fill="black"/>
<rect width="325" height="175" rx="11" fill="black"/>
<path d="M0 28H325V196C325 202.075 320.075 207 314 207H11C4.92486 207 0 202.075 0 196V28Z" fill="#EFEFEF"/>
<circle cx="19" cy="14" r="6" fill="#EF4C69"/>
<circle cx="39" cy="14" r="6" fill="#FFD057"/>
<circle cx="59" cy="14" r="6" fill="#41B5A2"/>
<rect x="114.5" y="74.5" width="97" height="13" rx="1.5" fill="white" stroke="#0061FE"/>
<rect x="114.5" y="95.5" width="97" height="13" rx="1.5" fill="white" stroke="#0061FE"/>
<rect x="165.5" y="147.5" width="46" height="13" rx="1.5" fill="#0061FE" stroke="#0061FE"/>
<rect x="114.5" y="116.5" width="97" height="13" rx="1.5" fill="white" stroke="#0061FE"/>
<rect x="114" y="53" width="53" height="7" rx="2" fill="#7C7C7C"/>
</svg>
