<svg width="139" height="28" viewBox="0 0 139 28" version="1.1" xmlns="http://www.w3.org/2000/svg" xmlns:xlink="http://www.w3.org/1999/xlink" xml:space="preserve" style="fill-rule:evenodd;clip-rule:evenodd;stroke-linejoin:round;stroke-miterlimit:2;">
    <g transform="matrix(1,0,0,1,-12239,-4241)">
        <g id="Artboard5" transform="matrix(0.893051,0,0,32.1655,10118,-29637)">
            <g transform="matrix(1,0,0,0.392344,-27.9939,639.573)">
                <g transform="matrix(2.45615,0,0,0.173809,-3685.26,813.961)">
                    <g transform="matrix(10.0298,0,0,10.0298,2494.06,1393.27)">
                        <path d="M0.066,-0.015C0.066,-0.015 0.168,0.013 0.309,0.013C0.576,0.013 0.659,-0.139 0.659,-0.357C0.659,-0.574 0.588,-0.723 0.31,-0.723C0.183,-0.723 0.066,-0.697 0.066,-0.697L0.066,-0.015ZM0.316,-0.581C0.447,-0.581 0.481,-0.491 0.481,-0.356C0.481,-0.213 0.439,-0.129 0.317,-0.129C0.292,-0.129 0.267,-0.13 0.243,-0.131L0.243,-0.578C0.266,-0.58 0.292,-0.581 0.316,-0.581Z" style="fill:currentColor;fill-rule:nonzero;"/>
                    </g>
                    <g transform="matrix(10.0298,0,0,10.0298,2501.12,1393.27)">
                        <path d="M0.367,-0.561C0.344,-0.564 0.322,-0.565 0.3,-0.565C0.201,-0.565 0.114,-0.54 0.065,-0.517L0.065,-0L0.238,-0L0.238,-0.407C0.256,-0.414 0.294,-0.42 0.329,-0.42C0.342,-0.42 0.353,-0.42 0.358,-0.419L0.367,-0.561Z" style="fill:currentColor;fill-rule:nonzero;"/>
                    </g>
                    <g transform="matrix(10.0298,0,0,10.0298,2505.04,1393.27)">
                        <path d="M0.394,-0.276C0.394,-0.205 0.389,-0.124 0.307,-0.124C0.225,-0.124 0.219,-0.205 0.219,-0.276C0.219,-0.347 0.225,-0.429 0.307,-0.429C0.389,-0.429 0.394,-0.347 0.394,-0.276ZM0.567,-0.276C0.567,-0.441 0.501,-0.566 0.307,-0.566C0.112,-0.566 0.046,-0.441 0.046,-0.276C0.046,-0.111 0.112,0.013 0.307,0.013C0.501,0.013 0.567,-0.111 0.567,-0.276Z" style="fill:currentColor;fill-rule:nonzero;"/>
                    </g>
                    <g transform="matrix(10.0298,0,0,10.0298,2511.18,1393.27)">
                        <path d="M0.402,-0.276C0.402,-0.192 0.386,-0.124 0.302,-0.124C0.269,-0.124 0.245,-0.13 0.238,-0.133L0.238,-0.421C0.245,-0.424 0.268,-0.429 0.302,-0.429C0.389,-0.429 0.402,-0.36 0.402,-0.276ZM0.575,-0.276C0.575,-0.452 0.507,-0.566 0.301,-0.566C0.166,-0.566 0.065,-0.518 0.065,-0.518L0.065,0.208L0.238,0.208L0.238,0.005C0.259,0.009 0.285,0.013 0.315,0.013C0.501,0.013 0.575,-0.1 0.575,-0.276Z" style="fill:currentColor;fill-rule:nonzero;"/>
                    </g>
                    <g transform="matrix(10.0298,0,0,10.0298,2517.39,1393.27)">
                        <path d="M0.049,-0.553L0.049,-0.417L0.265,-0.417L0.047,-0.137L0.047,-0L0.485,-0L0.485,-0.137L0.26,-0.137L0.474,-0.415L0.474,-0.553L0.049,-0.553Z" style="fill:currentColor;fill-rule:nonzero;"/>
                    </g>
                    <g transform="matrix(10.0298,0,0,10.0298,2522.66,1393.27)">
                        <path d="M0.394,-0.276C0.394,-0.205 0.389,-0.124 0.307,-0.124C0.225,-0.124 0.219,-0.205 0.219,-0.276C0.219,-0.347 0.225,-0.429 0.307,-0.429C0.389,-0.429 0.394,-0.347 0.394,-0.276ZM0.567,-0.276C0.567,-0.441 0.501,-0.566 0.307,-0.566C0.112,-0.566 0.046,-0.441 0.046,-0.276C0.046,-0.111 0.112,0.013 0.307,0.013C0.501,0.013 0.567,-0.111 0.567,-0.276Z" style="fill:currentColor;fill-rule:nonzero;"/>
                    </g>
                    <g transform="matrix(10.0298,0,0,10.0298,2528.81,1393.27)">
                        <path d="M0.395,-0L0.568,-0L0.568,-0.332C0.568,-0.513 0.478,-0.566 0.321,-0.566C0.174,-0.566 0.065,-0.518 0.065,-0.518L0.065,-0L0.238,-0L0.238,-0.419C0.238,-0.419 0.27,-0.429 0.311,-0.429C0.355,-0.429 0.395,-0.418 0.395,-0.351L0.395,-0Z" style="fill:currentColor;fill-rule:nonzero;"/>
                    </g>
                    <g transform="matrix(10.0298,0,0,10.0298,2535.09,1393.27)">
                        <path d="M0.523,-0.229C0.531,-0.264 0.535,-0.3 0.535,-0.333C0.535,-0.462 0.472,-0.566 0.301,-0.566C0.123,-0.566 0.046,-0.441 0.046,-0.277C0.046,-0.077 0.15,0.013 0.325,0.013C0.429,0.013 0.507,-0.017 0.507,-0.017L0.486,-0.144C0.486,-0.144 0.417,-0.123 0.343,-0.123C0.253,-0.123 0.22,-0.171 0.219,-0.229L0.523,-0.229ZM0.373,-0.336L0.219,-0.336C0.222,-0.39 0.239,-0.434 0.3,-0.434C0.367,-0.434 0.373,-0.386 0.373,-0.336Z" style="fill:currentColor;fill-rule:nonzero;"/>
                    </g>
                </g>
                <g transform="matrix(0.342148,0,0,0.0242121,2154.16,929.167)">
                    <path d="M773,5252C773,5252 748.646,5252 740,5252C739.204,5252 738.441,5251.68 737.879,5251.12C737.316,5250.56 737,5249.8 737,5249C737,5237.29 737,5194.71 737,5183C737,5182.2 737.316,5181.44 737.879,5180.88C738.441,5180.32 739.204,5180 740,5180C747.597,5180 767.386,5180 773,5180C792.869,5180 809,5196.13 809,5216C809,5235.87 792.869,5252 773,5252ZM773,5189C787.902,5189 800,5201.1 800,5216C800,5230.9 787.902,5243 773,5243L749,5243C747.343,5243 746,5241.66 746,5240C746,5233.82 746,5219.91 746,5216C746,5201.1 758.098,5189 773,5189ZM773,5234C782.935,5234 791,5225.93 791,5216C791,5206.07 782.934,5198 773,5198C763.065,5198 755,5206.07 755,5216C755,5218.21 755,5226.48 755,5231C755,5232.66 756.343,5234 758,5234C763.12,5234 773,5234 773,5234ZM773,5207C777.967,5207 782,5211.03 782,5216C782,5220.97 777.967,5225 773,5225C772.265,5225 768.43,5225 766.009,5225C764.899,5225 764,5224.1 764,5222.99C764,5220.68 764,5217.06 764,5216C764,5211.03 768.033,5207 773,5207Z" style="fill:currentColor;"/>
                </g>
            </g>
        </g>
    </g>
</svg>
